<mxfile host="Electron" agent="Mozilla/5.0 (Windows NT 10.0; Win64; x64) AppleWebKit/537.36 (KHTML, like Gecko) draw.io/25.0.2 Chrome/128.0.6613.186 Electron/32.2.5 Safari/537.36" version="25.0.2">
  <diagram name="Page-1" id="KUQ6PXO-Nh1uxkh2nEAS">
    <mxGraphModel dx="1007" dy="917" grid="1" gridSize="10" guides="1" tooltips="1" connect="1" arrows="1" fold="1" page="1" pageScale="1" pageWidth="850" pageHeight="1100" math="0" shadow="0">
      <root>
        <mxCell id="0" />
        <mxCell id="1" parent="0" />
        <mxCell id="ccn0asknlxdDzUZpwjS--2" value="&lt;span style=&quot;color: rgb(34, 34, 34); font-family: Georgia, serif; font-size: small; background-color: rgb(255, 255, 255); line-height: 0%;&quot;&gt;&lt;b&gt;WEB &amp;amp; VOICE BASED HOME ELECTRONIC DEVICES SMART SWITCHING SYSTEM&lt;/b&gt;&lt;/span&gt;" style="rounded=0;whiteSpace=wrap;html=1;fontStyle=4;verticalAlign=top;" parent="1" vertex="1">
          <mxGeometry x="260" y="50" width="630" height="890" as="geometry" />
        </mxCell>
        <mxCell id="ccn0asknlxdDzUZpwjS--10" value="&lt;h2&gt;&lt;span style=&quot;font-weight: normal;&quot;&gt;USER&lt;/span&gt;&lt;/h2&gt;" style="shape=umlActor;verticalLabelPosition=bottom;verticalAlign=top;html=1;" parent="1" vertex="1">
          <mxGeometry x="40" y="220" width="90" height="170" as="geometry" />
        </mxCell>
        <mxCell id="ccn0asknlxdDzUZpwjS--14" value="Registration" style="ellipse;whiteSpace=wrap;html=1;" parent="1" vertex="1">
          <mxGeometry x="390" y="80" width="140" height="70" as="geometry" />
        </mxCell>
        <mxCell id="ccn0asknlxdDzUZpwjS--16" value="login" style="ellipse;whiteSpace=wrap;html=1;" parent="1" vertex="1">
          <mxGeometry x="390" y="160" width="140" height="70" as="geometry" />
        </mxCell>
        <mxCell id="ccn0asknlxdDzUZpwjS--19" value="manage devices" style="ellipse;whiteSpace=wrap;html=1;" parent="1" vertex="1">
          <mxGeometry x="400" y="400" width="140" height="70" as="geometry" />
        </mxCell>
        <mxCell id="ccn0asknlxdDzUZpwjS--20" value="manage users" style="ellipse;whiteSpace=wrap;html=1;" parent="1" vertex="1">
          <mxGeometry x="410" y="750" width="140" height="70" as="geometry" />
        </mxCell>
        <mxCell id="ccn0asknlxdDzUZpwjS--21" value="view users" style="ellipse;whiteSpace=wrap;html=1;" parent="1" vertex="1">
          <mxGeometry x="680" y="610" width="140" height="70" as="geometry" />
        </mxCell>
        <mxCell id="ccn0asknlxdDzUZpwjS--22" value="control devices(ON/OFF)" style="ellipse;whiteSpace=wrap;html=1;" parent="1" vertex="1">
          <mxGeometry x="400" y="320" width="140" height="70" as="geometry" />
        </mxCell>
        <mxCell id="ccn0asknlxdDzUZpwjS--23" value="deactivate/delete users" style="ellipse;whiteSpace=wrap;html=1;" parent="1" vertex="1">
          <mxGeometry x="680" y="700" width="140" height="70" as="geometry" />
        </mxCell>
        <mxCell id="ccn0asknlxdDzUZpwjS--24" value="add users" style="ellipse;whiteSpace=wrap;html=1;" parent="1" vertex="1">
          <mxGeometry x="680" y="788" width="140" height="70" as="geometry" />
        </mxCell>
        <mxCell id="ccn0asknlxdDzUZpwjS--27" value="&lt;h2&gt;&lt;span style=&quot;font-weight: normal;&quot;&gt;ADMIN&lt;/span&gt;&lt;/h2&gt;" style="shape=umlActor;verticalLabelPosition=bottom;verticalAlign=top;html=1;" parent="1" vertex="1">
          <mxGeometry x="50" y="570" width="90" height="170" as="geometry" />
        </mxCell>
        <mxCell id="ccn0asknlxdDzUZpwjS--62" value="" style="endArrow=none;html=1;rounded=0;entryX=-0.002;entryY=0.633;entryDx=0;entryDy=0;entryPerimeter=0;" parent="1" source="ccn0asknlxdDzUZpwjS--10" edge="1" target="ccn0asknlxdDzUZpwjS--14">
          <mxGeometry relative="1" as="geometry">
            <mxPoint x="140" y="310" as="sourcePoint" />
            <mxPoint x="380" y="157.11" as="targetPoint" />
          </mxGeometry>
        </mxCell>
        <mxCell id="ccn0asknlxdDzUZpwjS--63" value="" style="endArrow=none;html=1;rounded=0;entryX=0;entryY=0.5;entryDx=0;entryDy=0;" parent="1" edge="1" target="ccn0asknlxdDzUZpwjS--16">
          <mxGeometry relative="1" as="geometry">
            <mxPoint x="140" y="300" as="sourcePoint" />
            <mxPoint x="380" y="250" as="targetPoint" />
          </mxGeometry>
        </mxCell>
        <mxCell id="ccn0asknlxdDzUZpwjS--64" value="" style="endArrow=none;html=1;rounded=0;entryX=0;entryY=0.5;entryDx=0;entryDy=0;" parent="1" edge="1" target="ccn0asknlxdDzUZpwjS--22">
          <mxGeometry relative="1" as="geometry">
            <mxPoint x="140" y="320" as="sourcePoint" />
            <mxPoint x="390" y="324.23" as="targetPoint" />
          </mxGeometry>
        </mxCell>
        <mxCell id="ccn0asknlxdDzUZpwjS--65" value="" style="endArrow=none;html=1;rounded=0;entryX=0;entryY=0.5;entryDx=0;entryDy=0;" parent="1" edge="1" target="ccn0asknlxdDzUZpwjS--19">
          <mxGeometry relative="1" as="geometry">
            <mxPoint x="130" y="340" as="sourcePoint" />
            <mxPoint x="390" y="400" as="targetPoint" />
          </mxGeometry>
        </mxCell>
        <mxCell id="ccn0asknlxdDzUZpwjS--69" value="" style="endArrow=none;html=1;rounded=0;entryX=0.055;entryY=0.738;entryDx=0;entryDy=0;entryPerimeter=0;" parent="1" target="ccn0asknlxdDzUZpwjS--16" edge="1">
          <mxGeometry relative="1" as="geometry">
            <mxPoint x="150" y="640" as="sourcePoint" />
            <mxPoint x="380" y="290" as="targetPoint" />
          </mxGeometry>
        </mxCell>
        <mxCell id="ccn0asknlxdDzUZpwjS--70" value="edit / rename devices" style="ellipse;whiteSpace=wrap;html=1;" parent="1" vertex="1">
          <mxGeometry x="670" y="300" width="140" height="70" as="geometry" />
        </mxCell>
        <mxCell id="ccn0asknlxdDzUZpwjS--71" value="delete devices" style="ellipse;whiteSpace=wrap;html=1;" parent="1" vertex="1">
          <mxGeometry x="670" y="463" width="140" height="70" as="geometry" />
        </mxCell>
        <mxCell id="ccn0asknlxdDzUZpwjS--72" value="view status(ON/OFF)" style="ellipse;whiteSpace=wrap;html=1;" parent="1" vertex="1">
          <mxGeometry x="670" y="380" width="140" height="70" as="geometry" />
        </mxCell>
        <mxCell id="ccn0asknlxdDzUZpwjS--74" value="&lt;font style=&quot;font-size: 12px; line-height: 110%;&quot;&gt;&amp;lt;&amp;lt;extend&amp;gt;&amp;gt;&lt;/font&gt;" style="html=1;verticalAlign=bottom;endArrow=open;dashed=1;endSize=8;curved=0;rounded=0;exitX=0;exitY=0.5;exitDx=0;exitDy=0;entryX=0.951;entryY=0.278;entryDx=0;entryDy=0;entryPerimeter=0;" parent="1" source="ccn0asknlxdDzUZpwjS--70" target="ccn0asknlxdDzUZpwjS--19" edge="1">
          <mxGeometry relative="1" as="geometry">
            <mxPoint x="640" y="320" as="sourcePoint" />
            <mxPoint x="526" y="385" as="targetPoint" />
          </mxGeometry>
        </mxCell>
        <mxCell id="ccn0asknlxdDzUZpwjS--76" value="&lt;font style=&quot;font-size: 12px; line-height: 110%;&quot;&gt;&amp;lt;&amp;lt;extend&amp;gt;&amp;gt;&lt;/font&gt;" style="html=1;verticalAlign=bottom;endArrow=open;dashed=1;endSize=8;curved=0;rounded=0;entryX=1;entryY=0.5;entryDx=0;entryDy=0;exitX=0;exitY=0.5;exitDx=0;exitDy=0;" parent="1" source="ccn0asknlxdDzUZpwjS--72" target="ccn0asknlxdDzUZpwjS--19" edge="1">
          <mxGeometry relative="1" as="geometry">
            <mxPoint x="660" y="390" as="sourcePoint" />
            <mxPoint x="540" y="470" as="targetPoint" />
          </mxGeometry>
        </mxCell>
        <mxCell id="ccn0asknlxdDzUZpwjS--77" value="&lt;font style=&quot;font-size: 12px; line-height: 110%;&quot;&gt;&amp;lt;&amp;lt;extend&amp;gt;&amp;gt;&lt;/font&gt;" style="html=1;verticalAlign=bottom;endArrow=open;dashed=1;endSize=8;curved=0;rounded=0;entryX=1;entryY=1;entryDx=0;entryDy=0;exitX=0;exitY=0.5;exitDx=0;exitDy=0;" parent="1" target="ccn0asknlxdDzUZpwjS--19" edge="1" source="ccn0asknlxdDzUZpwjS--71">
          <mxGeometry relative="1" as="geometry">
            <mxPoint x="660" y="470" as="sourcePoint" />
            <mxPoint x="540" y="550" as="targetPoint" />
          </mxGeometry>
        </mxCell>
        <mxCell id="ccn0asknlxdDzUZpwjS--80" value="logout" style="ellipse;whiteSpace=wrap;html=1;" parent="1" vertex="1">
          <mxGeometry x="400" y="580" width="140" height="70" as="geometry" />
        </mxCell>
        <mxCell id="ccn0asknlxdDzUZpwjS--81" value="" style="endArrow=none;html=1;rounded=0;entryX=0.073;entryY=0.223;entryDx=0;entryDy=0;entryPerimeter=0;" parent="1" target="ccn0asknlxdDzUZpwjS--80" edge="1">
          <mxGeometry relative="1" as="geometry">
            <mxPoint x="140" y="380" as="sourcePoint" />
            <mxPoint x="400" y="480" as="targetPoint" />
          </mxGeometry>
        </mxCell>
        <mxCell id="ccn0asknlxdDzUZpwjS--82" value="" style="endArrow=none;html=1;rounded=0;entryX=0;entryY=0.5;entryDx=0;entryDy=0;" parent="1" target="ccn0asknlxdDzUZpwjS--80" edge="1">
          <mxGeometry relative="1" as="geometry">
            <mxPoint x="150" y="660" as="sourcePoint" />
            <mxPoint x="400" y="483.5" as="targetPoint" />
          </mxGeometry>
        </mxCell>
        <mxCell id="ccn0asknlxdDzUZpwjS--83" value="" style="endArrow=none;html=1;rounded=0;entryX=0;entryY=0.5;entryDx=0;entryDy=0;" parent="1" target="ccn0asknlxdDzUZpwjS--84" edge="1">
          <mxGeometry relative="1" as="geometry">
            <mxPoint x="140" y="360" as="sourcePoint" />
            <mxPoint x="470" y="480" as="targetPoint" />
          </mxGeometry>
        </mxCell>
        <mxCell id="ccn0asknlxdDzUZpwjS--84" value="view devices logs" style="ellipse;whiteSpace=wrap;html=1;" parent="1" vertex="1">
          <mxGeometry x="400" y="488" width="140" height="70" as="geometry" />
        </mxCell>
        <mxCell id="ccn0asknlxdDzUZpwjS--85" value="" style="endArrow=none;html=1;rounded=0;entryX=0.024;entryY=0.318;entryDx=0;entryDy=0;entryPerimeter=0;" parent="1" target="ccn0asknlxdDzUZpwjS--20" edge="1">
          <mxGeometry relative="1" as="geometry">
            <mxPoint x="150" y="690" as="sourcePoint" />
            <mxPoint x="410" y="605" as="targetPoint" />
          </mxGeometry>
        </mxCell>
        <mxCell id="ccn0asknlxdDzUZpwjS--87" value="add devices type" style="ellipse;whiteSpace=wrap;html=1;" parent="1" vertex="1">
          <mxGeometry x="410" y="830" width="140" height="70" as="geometry" />
        </mxCell>
        <mxCell id="ccn0asknlxdDzUZpwjS--88" value="" style="endArrow=none;html=1;rounded=0;entryX=0.022;entryY=0.259;entryDx=0;entryDy=0;entryPerimeter=0;" parent="1" target="ccn0asknlxdDzUZpwjS--87" edge="1">
          <mxGeometry relative="1" as="geometry">
            <mxPoint x="127" y="700" as="sourcePoint" />
            <mxPoint x="390" y="730" as="targetPoint" />
          </mxGeometry>
        </mxCell>
        <mxCell id="ccn0asknlxdDzUZpwjS--90" value="&lt;font style=&quot;font-size: 12px; line-height: 110%;&quot;&gt;&amp;lt;&amp;lt;extend&amp;gt;&amp;gt;&lt;/font&gt;" style="html=1;verticalAlign=bottom;endArrow=open;dashed=1;endSize=8;curved=0;rounded=0;exitX=0;exitY=0.5;exitDx=0;exitDy=0;" parent="1" source="ccn0asknlxdDzUZpwjS--21" target="ccn0asknlxdDzUZpwjS--20" edge="1">
          <mxGeometry relative="1" as="geometry">
            <mxPoint x="640" y="581" as="sourcePoint" />
            <mxPoint x="490" y="540" as="targetPoint" />
          </mxGeometry>
        </mxCell>
        <mxCell id="ccn0asknlxdDzUZpwjS--91" value="&lt;font style=&quot;font-size: 12px; line-height: 110%;&quot;&gt;&amp;lt;&amp;lt;extend&amp;gt;&amp;gt;&lt;/font&gt;" style="html=1;verticalAlign=bottom;endArrow=open;dashed=1;endSize=8;curved=0;rounded=0;exitX=0;exitY=0.5;exitDx=0;exitDy=0;entryX=0.938;entryY=0.23;entryDx=0;entryDy=0;entryPerimeter=0;" parent="1" source="ccn0asknlxdDzUZpwjS--23" target="ccn0asknlxdDzUZpwjS--20" edge="1">
          <mxGeometry relative="1" as="geometry">
            <mxPoint x="650" y="591" as="sourcePoint" />
            <mxPoint x="517" y="695" as="targetPoint" />
          </mxGeometry>
        </mxCell>
        <mxCell id="ccn0asknlxdDzUZpwjS--93" value="&lt;font style=&quot;font-size: 12px; line-height: 110%;&quot;&gt;&amp;lt;&amp;lt;extend&amp;gt;&amp;gt;&lt;/font&gt;" style="html=1;verticalAlign=bottom;endArrow=open;dashed=1;endSize=8;curved=0;rounded=0;entryX=1;entryY=0.5;entryDx=0;entryDy=0;exitX=0.046;exitY=0.322;exitDx=0;exitDy=0;exitPerimeter=0;" parent="1" source="ccn0asknlxdDzUZpwjS--24" target="ccn0asknlxdDzUZpwjS--20" edge="1">
          <mxGeometry x="0.1642" y="29" relative="1" as="geometry">
            <mxPoint x="640" y="760" as="sourcePoint" />
            <mxPoint x="541" y="771" as="targetPoint" />
            <mxPoint x="-1" y="-1" as="offset" />
          </mxGeometry>
        </mxCell>
        <mxCell id="qqyW3NHNtRi_Kyw0Y2AC-1" value="&lt;p style=&quot;margin:0px;margin-top:4px;text-align:center;&quot;&gt;&lt;b&gt;User&lt;/b&gt;&lt;/p&gt;&lt;hr size=&quot;1&quot; style=&quot;border-style:solid;&quot;&gt;&lt;p style=&quot;margin:0px;margin-left:4px;&quot;&gt;- id:int&lt;/p&gt;&lt;p style=&quot;margin:0px;margin-left:4px;&quot;&gt;- username:str&lt;/p&gt;&lt;p style=&quot;margin:0px;margin-left:4px;&quot;&gt;- password: str&lt;br&gt;&lt;/p&gt;&lt;p style=&quot;margin:0px;margin-left:4px;&quot;&gt;- is_admin: bool&lt;/p&gt;&lt;p style=&quot;margin:0px;margin-left:4px;&quot;&gt;&amp;nbsp;- is_active: bool&lt;/p&gt;&lt;p style=&quot;margin:0px;margin-left:4px;&quot;&gt;&amp;nbsp;-phone_number:str&lt;/p&gt;&lt;hr size=&quot;1&quot; style=&quot;border-style:solid;&quot;&gt;&lt;p style=&quot;margin:0px;margin-left:4px;&quot;&gt;&amp;nbsp;+register()&amp;nbsp; &amp;nbsp; &amp;nbsp; &amp;nbsp;&amp;nbsp;&lt;/p&gt;&lt;p style=&quot;margin:0px;margin-left:4px;&quot;&gt;&amp;nbsp;+login()&lt;/p&gt;&lt;p style=&quot;margin:0px;margin-left:4px;&quot;&gt;&amp;nbsp;+request_devices()&lt;/p&gt;&lt;p style=&quot;margin:0px;margin-left:4px;&quot;&gt;&amp;nbsp;+view_devices()&lt;/p&gt;&lt;p style=&quot;margin:0px;margin-left:4px;&quot;&gt;&amp;nbsp;+edit_device()&lt;/p&gt;&lt;p style=&quot;margin:0px;margin-left:4px;&quot;&gt;&amp;nbsp;+delete_device()&lt;/p&gt;&lt;p style=&quot;margin:0px;margin-left:4px;&quot;&gt;&lt;br&gt;&lt;/p&gt;&lt;p style=&quot;margin:0px;margin-left:4px;&quot;&gt;&lt;br&gt;&lt;/p&gt;&lt;p style=&quot;margin:0px;margin-left:4px;&quot;&gt;&lt;br&gt;&lt;/p&gt;" style="verticalAlign=top;align=left;overflow=fill;html=1;whiteSpace=wrap;" parent="1" vertex="1">
          <mxGeometry x="1310" y="470" width="160" height="220" as="geometry" />
        </mxCell>
        <mxCell id="qqyW3NHNtRi_Kyw0Y2AC-3" value="&lt;p style=&quot;margin:0px;margin-top:4px;text-align:center;&quot;&gt;&lt;b&gt;Admin(inherits user)&lt;/b&gt;&lt;/p&gt;&lt;hr size=&quot;1&quot; style=&quot;border-style:solid;&quot;&gt;&lt;div style=&quot;height:2px;&quot;&gt;&amp;nbsp; &amp;nbsp;+add_device_type()&amp;nbsp;&lt;/div&gt;&lt;div style=&quot;height:2px;&quot;&gt;&lt;br&gt;&lt;/div&gt;&lt;div style=&quot;height:2px;&quot;&gt;&lt;br&gt;&lt;/div&gt;&lt;div style=&quot;height:2px;&quot;&gt;&lt;br&gt;&lt;/div&gt;&lt;div style=&quot;height:2px;&quot;&gt;&lt;br&gt;&lt;/div&gt;&lt;div style=&quot;height:2px;&quot;&gt;&lt;br&gt;&lt;/div&gt;&lt;div style=&quot;height:2px;&quot;&gt;&lt;br&gt;&lt;/div&gt;&lt;div style=&quot;height:2px;&quot;&gt;&lt;br&gt;&lt;/div&gt;&lt;div style=&quot;height:2px;&quot;&gt;&lt;br&gt;&lt;/div&gt;&lt;div style=&quot;height:2px;&quot;&gt;&amp;nbsp; &amp;nbsp;++manage_users()&lt;/div&gt;" style="verticalAlign=top;align=left;overflow=fill;html=1;whiteSpace=wrap;" parent="1" vertex="1">
          <mxGeometry x="1180" width="140" height="80" as="geometry" />
        </mxCell>
        <mxCell id="qqyW3NHNtRi_Kyw0Y2AC-5" value="&lt;p style=&quot;margin:0px;margin-top:4px;text-align:center;&quot;&gt;&lt;b&gt;DeviceType&lt;/b&gt;&lt;/p&gt;&lt;hr size=&quot;1&quot; style=&quot;border-style:solid;&quot;&gt;&lt;p style=&quot;margin:0px;margin-left:4px;&quot;&gt;&amp;nbsp;- id: int&amp;nbsp; &amp;nbsp; &amp;nbsp; &amp;nbsp; &amp;nbsp; &amp;nbsp; &amp;nbsp;&lt;/p&gt;&lt;p style=&quot;margin:0px;margin-left:4px;&quot;&gt;&amp;nbsp;- name: str&amp;nbsp;&amp;nbsp;&lt;/p&gt;&lt;p style=&quot;margin:0px;margin-left:4px;&quot;&gt;&amp;nbsp;- icon:str&lt;/p&gt;&lt;p style=&quot;margin:0px;margin-left:4px;&quot;&gt;&amp;nbsp;-description:str&lt;/p&gt;&lt;p style=&quot;margin:0px;margin-left:4px;&quot;&gt;&amp;nbsp;-pin_range_string: int&lt;/p&gt;&lt;p style=&quot;margin:0px;margin-left:4px;&quot;&gt;&amp;nbsp;-pin_range_end: int&lt;/p&gt;&lt;hr size=&quot;1&quot; style=&quot;border-style:solid;&quot;&gt;&lt;p style=&quot;margin:0px;margin-left:4px;&quot;&gt;+create_type()&amp;nbsp; &amp;nbsp; &amp;nbsp; &amp;nbsp;&amp;nbsp;&lt;/p&gt;&lt;p style=&quot;margin:0px;margin-left:4px;&quot;&gt;&amp;nbsp;+edit_type()&amp;nbsp; &amp;nbsp; &amp;nbsp; &amp;nbsp; &amp;nbsp;&amp;nbsp;&lt;/p&gt;&lt;p style=&quot;margin:0px;margin-left:4px;&quot;&gt;&amp;nbsp;+delete_type()&lt;/p&gt;&lt;p style=&quot;margin:0px;margin-left:4px;&quot;&gt;&amp;nbsp;+get_available_pin()&amp;nbsp;&lt;/p&gt;" style="verticalAlign=top;align=left;overflow=fill;html=1;whiteSpace=wrap;" parent="1" vertex="1">
          <mxGeometry x="1830" y="470" width="160" height="200" as="geometry" />
        </mxCell>
        <mxCell id="qqyW3NHNtRi_Kyw0Y2AC-7" value="&lt;p style=&quot;margin:0px;margin-top:4px;text-align:center;&quot;&gt;&lt;b&gt;DeviceLog&amp;nbsp; &amp;nbsp; &amp;nbsp; &amp;nbsp; &amp;nbsp; &amp;nbsp; &amp;nbsp; &amp;nbsp;&lt;/b&gt;&lt;br&gt;&lt;/p&gt;&lt;hr size=&quot;1&quot; style=&quot;border-style:solid;&quot;&gt;&lt;p style=&quot;margin:0px;margin-left:4px;&quot;&gt;- id: int&amp;nbsp; &amp;nbsp; &amp;nbsp; &amp;nbsp; &amp;nbsp; &amp;nbsp; &amp;nbsp; &amp;nbsp; &amp;nbsp; &amp;nbsp;&lt;/p&gt;&lt;p style=&quot;margin:0px;margin-left:4px;&quot;&gt;&amp;nbsp;- device_id: FK → Device&amp;nbsp; &amp;nbsp;&amp;nbsp;&lt;/p&gt;&lt;p style=&quot;margin:0px;margin-left:4px;&quot;&gt;&amp;nbsp;- action: str (ON/OFF)&amp;nbsp; &amp;nbsp; &amp;nbsp;&amp;nbsp;&lt;/p&gt;&lt;p style=&quot;margin:0px;margin-left:4px;&quot;&gt;&amp;nbsp;- timestamp: datetime&amp;nbsp; &amp;nbsp; &amp;nbsp; &amp;nbsp;&lt;/p&gt;&lt;p style=&quot;margin:0px;margin-left:4px;&quot;&gt;&amp;nbsp;- duration: time (optional&lt;/p&gt;&lt;hr size=&quot;1&quot; style=&quot;border-style:solid;&quot;&gt;&lt;p style=&quot;margin:0px;margin-left:4px;&quot;&gt;&amp;nbsp;+record_action()&amp;nbsp; &amp;nbsp; &amp;nbsp; &amp;nbsp; &amp;nbsp; &amp;nbsp;&amp;nbsp;&lt;/p&gt;&lt;p style=&quot;margin:0px;margin-left:4px;&quot;&gt;&amp;nbsp;+get_logs_by_user()&lt;/p&gt;" style="verticalAlign=top;align=left;overflow=fill;html=1;whiteSpace=wrap;" parent="1" vertex="1">
          <mxGeometry x="1070" y="770" width="160" height="160" as="geometry" />
        </mxCell>
        <mxCell id="qqyW3NHNtRi_Kyw0Y2AC-8" value="&lt;p style=&quot;margin:0px;margin-top:4px;text-align:center;&quot;&gt;&lt;b&gt;DeviceRequest&lt;/b&gt;&lt;/p&gt;&lt;hr size=&quot;1&quot; style=&quot;border-style:solid;&quot;&gt;&lt;p style=&quot;margin:0px;margin-left:4px;&quot;&gt;- id: int&lt;/p&gt;&lt;p style=&quot;margin:0px;margin-left:4px;&quot;&gt;- user: User&lt;/p&gt;&lt;p style=&quot;margin:0px;margin-left:4px;&quot;&gt;- device_type: DeviceType&lt;/p&gt;&lt;p style=&quot;margin:0px;margin-left:4px;&quot;&gt;- quantity: int&lt;/p&gt;&lt;hr size=&quot;1&quot; style=&quot;border-style:solid;&quot;&gt;&lt;p style=&quot;margin:0px;margin-left:4px;&quot;&gt;+ submit_request()&lt;/p&gt;&lt;p style=&quot;margin:0px;margin-left:4px;&quot;&gt;+ get_request_status()&lt;/p&gt;&lt;p style=&quot;margin:0px;margin-left:4px;&quot;&gt;&amp;nbsp;+ approve_request()&lt;/p&gt;" style="verticalAlign=top;align=left;overflow=fill;html=1;whiteSpace=wrap;" parent="1" vertex="1">
          <mxGeometry x="1580" y="480" width="160" height="160" as="geometry" />
        </mxCell>
        <mxCell id="qqyW3NHNtRi_Kyw0Y2AC-14" value=" A single user can own multiple devices." style="text;html=1;align=center;verticalAlign=middle;resizable=0;points=[];autosize=1;strokeColor=none;fillColor=none;" parent="1" vertex="1">
          <mxGeometry x="1450" y="360" width="230" height="30" as="geometry" />
        </mxCell>
        <mxCell id="hh1Gan7ckXfVCNVQFmxi-1" value="&lt;p style=&quot;margin:0px;margin-top:4px;text-align:center;&quot;&gt;&lt;b&gt;DeviceUsage&lt;/b&gt;&lt;br&gt;&lt;/p&gt;&lt;hr size=&quot;1&quot; style=&quot;border-style:solid;&quot;&gt;&lt;p style=&quot;margin:0px;margin-left:4px;&quot;&gt;- id: int&amp;nbsp; &amp;nbsp; &amp;nbsp; &amp;nbsp; &amp;nbsp; &amp;nbsp; &amp;nbsp; &amp;nbsp; &amp;nbsp; &amp;nbsp;&lt;/p&gt;&lt;p style=&quot;margin:0px;margin-left:4px;&quot;&gt;&amp;nbsp;- device : Device&amp;nbsp; &amp;nbsp;&amp;nbsp;&lt;/p&gt;&lt;p style=&quot;margin:0px;margin-left:4px;&quot;&gt;&amp;nbsp;- time_on : datetime&amp;nbsp; &amp;nbsp; &amp;nbsp;&lt;/p&gt;&lt;p style=&quot;margin:0px;margin-left:4px;&quot;&gt;&amp;nbsp;- time_off : datetime&amp;nbsp; &amp;nbsp; &amp;nbsp; &amp;nbsp;&lt;/p&gt;&lt;p style=&quot;margin:0px;margin-left:4px;&quot;&gt;&amp;nbsp;- duration: TimeDelta&lt;/p&gt;&lt;hr size=&quot;1&quot; style=&quot;border-style:solid;&quot;&gt;&lt;p style=&quot;margin:0px;margin-left:4px;&quot;&gt;&amp;nbsp;+calculate_duration()&amp;nbsp; &amp;nbsp; &amp;nbsp; &amp;nbsp; &amp;nbsp;&amp;nbsp;&lt;/p&gt;&lt;p style=&quot;margin:0px;margin-left:4px;&quot;&gt;&amp;nbsp;+get_logs_by_device()&lt;/p&gt;" style="verticalAlign=top;align=left;overflow=fill;html=1;whiteSpace=wrap;" vertex="1" parent="1">
          <mxGeometry x="1610" y="760" width="160" height="150" as="geometry" />
        </mxCell>
        <mxCell id="hh1Gan7ckXfVCNVQFmxi-3" style="edgeStyle=orthogonalEdgeStyle;rounded=0;orthogonalLoop=1;jettySize=auto;html=1;entryX=0.5;entryY=1;entryDx=0;entryDy=0;" edge="1" parent="1" source="hh1Gan7ckXfVCNVQFmxi-2" target="qqyW3NHNtRi_Kyw0Y2AC-1">
          <mxGeometry relative="1" as="geometry">
            <Array as="points">
              <mxPoint x="1390" y="690" />
            </Array>
          </mxGeometry>
        </mxCell>
        <mxCell id="hh1Gan7ckXfVCNVQFmxi-2" value="&lt;p style=&quot;margin:0px;margin-top:4px;text-align:center;&quot;&gt;&lt;b&gt;&amp;nbsp;Device&amp;nbsp;&lt;/b&gt;&lt;br&gt;&lt;/p&gt;&lt;hr size=&quot;1&quot; style=&quot;border-style:solid;&quot;&gt;&lt;p style=&quot;margin:0px;margin-left:4px;&quot;&gt;&amp;nbsp;- id: int&amp;nbsp; &amp;nbsp; &amp;nbsp; &amp;nbsp; &amp;nbsp; &amp;nbsp; &amp;nbsp; &amp;nbsp;&amp;nbsp;&lt;/p&gt;&lt;p style=&quot;margin:0px;margin-left:4px;&quot;&gt;&amp;nbsp;- name: str&amp;nbsp; &amp;nbsp; &amp;nbsp; &amp;nbsp; &amp;nbsp; &amp;nbsp; &amp;nbsp;&amp;nbsp;&lt;/p&gt;&lt;p style=&quot;margin:0px;margin-left:4px;&quot;&gt;&amp;nbsp;- status: bool&amp;nbsp; &amp;nbsp; &amp;nbsp; &amp;nbsp; &amp;nbsp; &amp;nbsp;&lt;/p&gt;&lt;p style=&quot;margin:0px;margin-left:4px;&quot;&gt;&amp;nbsp;- location: str&amp;nbsp; &amp;nbsp; &amp;nbsp; &amp;nbsp; &amp;nbsp;&amp;nbsp;&lt;/p&gt;&lt;p style=&quot;margin:0px;margin-left:4px;&quot;&gt;&amp;nbsp;- user_id: FK → User&amp;nbsp; &amp;nbsp; &amp;nbsp;&lt;/p&gt;&lt;p style=&quot;margin:0px;margin-left:4px;&quot;&gt;&amp;nbsp;- device_type_id: FK&lt;/p&gt;&lt;hr size=&quot;1&quot; style=&quot;border-style:solid;&quot;&gt;&lt;p style=&quot;margin:0px;margin-left:4px;&quot;&gt;&amp;nbsp;+toggle_status()&amp;nbsp; &amp;nbsp; &amp;nbsp; &amp;nbsp; &amp;nbsp;&lt;/p&gt;&lt;p style=&quot;margin:0px;margin-left:4px;&quot;&gt;&amp;nbsp;+edit_device()&amp;nbsp; &amp;nbsp; &amp;nbsp; &amp;nbsp; &amp;nbsp; &amp;nbsp;&lt;/p&gt;&lt;p style=&quot;margin:0px;margin-left:4px;&quot;&gt;&amp;nbsp;+delete_device()&amp;nbsp;&lt;/p&gt;" style="verticalAlign=top;align=left;overflow=fill;html=1;whiteSpace=wrap;" vertex="1" parent="1">
          <mxGeometry x="1310" y="760" width="190" height="180" as="geometry" />
        </mxCell>
        <mxCell id="hh1Gan7ckXfVCNVQFmxi-7" value="" style="endArrow=none;html=1;rounded=0;exitX=1.017;exitY=0.472;exitDx=0;exitDy=0;exitPerimeter=0;entryX=-0.004;entryY=0.592;entryDx=0;entryDy=0;entryPerimeter=0;" edge="1" parent="1" source="qqyW3NHNtRi_Kyw0Y2AC-1" target="qqyW3NHNtRi_Kyw0Y2AC-8">
          <mxGeometry width="50" height="50" relative="1" as="geometry">
            <mxPoint x="1570" y="700" as="sourcePoint" />
            <mxPoint x="1619" y="570" as="targetPoint" />
          </mxGeometry>
        </mxCell>
        <mxCell id="hh1Gan7ckXfVCNVQFmxi-8" value="&lt;b&gt;1&lt;/b&gt;" style="text;html=1;align=center;verticalAlign=middle;resizable=0;points=[];autosize=1;strokeColor=none;fillColor=none;" vertex="1" parent="1">
          <mxGeometry x="1470" y="540" width="30" height="30" as="geometry" />
        </mxCell>
        <mxCell id="hh1Gan7ckXfVCNVQFmxi-11" style="edgeStyle=orthogonalEdgeStyle;rounded=0;orthogonalLoop=1;jettySize=auto;html=1;entryX=1.021;entryY=0.419;entryDx=0;entryDy=0;entryPerimeter=0;" edge="1" parent="1" source="hh1Gan7ckXfVCNVQFmxi-1" target="hh1Gan7ckXfVCNVQFmxi-2">
          <mxGeometry relative="1" as="geometry">
            <Array as="points">
              <mxPoint x="1504" y="835" />
              <mxPoint x="1504" y="835" />
            </Array>
          </mxGeometry>
        </mxCell>
        <mxCell id="hh1Gan7ckXfVCNVQFmxi-12" value="" style="endArrow=none;html=1;rounded=0;" edge="1" parent="1">
          <mxGeometry width="50" height="50" relative="1" as="geometry">
            <mxPoint x="1230" y="840" as="sourcePoint" />
            <mxPoint x="1310" y="840" as="targetPoint" />
          </mxGeometry>
        </mxCell>
        <mxCell id="hh1Gan7ckXfVCNVQFmxi-13" value="" style="endArrow=none;html=1;rounded=0;exitX=1.017;exitY=0.472;exitDx=0;exitDy=0;exitPerimeter=0;" edge="1" parent="1">
          <mxGeometry width="50" height="50" relative="1" as="geometry">
            <mxPoint x="1740" y="560.44" as="sourcePoint" />
            <mxPoint x="1830" y="560" as="targetPoint" />
          </mxGeometry>
        </mxCell>
        <mxCell id="hh1Gan7ckXfVCNVQFmxi-14" value="&lt;font style=&quot;font-size: 18px;&quot;&gt;&lt;b&gt;*&lt;/b&gt;&lt;/font&gt;" style="text;html=1;align=center;verticalAlign=middle;resizable=0;points=[];autosize=1;strokeColor=none;fillColor=none;" vertex="1" parent="1">
          <mxGeometry x="1560" y="540" width="30" height="40" as="geometry" />
        </mxCell>
        <mxCell id="hh1Gan7ckXfVCNVQFmxi-15" value="&lt;b&gt;1&lt;/b&gt;" style="text;html=1;align=center;verticalAlign=middle;resizable=0;points=[];autosize=1;strokeColor=none;fillColor=none;" vertex="1" parent="1">
          <mxGeometry x="1280" y="813" width="30" height="30" as="geometry" />
        </mxCell>
        <mxCell id="hh1Gan7ckXfVCNVQFmxi-16" value="&lt;font style=&quot;font-size: 18px;&quot;&gt;&lt;b&gt;*&lt;/b&gt;&lt;/font&gt;" style="text;html=1;align=center;verticalAlign=middle;resizable=0;points=[];autosize=1;strokeColor=none;fillColor=none;" vertex="1" parent="1">
          <mxGeometry x="1225" y="803" width="30" height="40" as="geometry" />
        </mxCell>
        <mxCell id="hh1Gan7ckXfVCNVQFmxi-17" value="&lt;font style=&quot;font-size: 18px;&quot;&gt;&lt;b&gt;*&lt;/b&gt;&lt;/font&gt;" style="text;html=1;align=center;verticalAlign=middle;resizable=0;points=[];autosize=1;strokeColor=none;fillColor=none;" vertex="1" parent="1">
          <mxGeometry x="1735" y="533" width="30" height="40" as="geometry" />
        </mxCell>
        <mxCell id="hh1Gan7ckXfVCNVQFmxi-18" value="&lt;b&gt;1&lt;/b&gt;" style="text;html=1;align=center;verticalAlign=middle;resizable=0;points=[];autosize=1;strokeColor=none;fillColor=none;" vertex="1" parent="1">
          <mxGeometry x="1805" y="528" width="30" height="30" as="geometry" />
        </mxCell>
        <mxCell id="hh1Gan7ckXfVCNVQFmxi-19" value="approve requests" style="ellipse;whiteSpace=wrap;html=1;" vertex="1" parent="1">
          <mxGeometry x="400" y="670" width="140" height="70" as="geometry" />
        </mxCell>
        <mxCell id="hh1Gan7ckXfVCNVQFmxi-20" value="" style="endArrow=none;html=1;rounded=0;entryX=0;entryY=0.5;entryDx=0;entryDy=0;" edge="1" parent="1" target="hh1Gan7ckXfVCNVQFmxi-19">
          <mxGeometry relative="1" as="geometry">
            <mxPoint x="150" y="675" as="sourcePoint" />
            <mxPoint x="410" y="605" as="targetPoint" />
          </mxGeometry>
        </mxCell>
        <mxCell id="hh1Gan7ckXfVCNVQFmxi-23" value="Request for devices" style="ellipse;whiteSpace=wrap;html=1;" vertex="1" parent="1">
          <mxGeometry x="390" y="240" width="140" height="70" as="geometry" />
        </mxCell>
        <mxCell id="hh1Gan7ckXfVCNVQFmxi-24" value="" style="endArrow=none;html=1;rounded=0;entryX=0;entryY=0.5;entryDx=0;entryDy=0;" edge="1" parent="1" target="hh1Gan7ckXfVCNVQFmxi-23">
          <mxGeometry relative="1" as="geometry">
            <mxPoint x="150" y="310" as="sourcePoint" />
            <mxPoint x="400" y="205" as="targetPoint" />
          </mxGeometry>
        </mxCell>
      </root>
    </mxGraphModel>
  </diagram>
</mxfile>
